<?xml version="1.0" encoding="UTF-8" standalone="no"?>
<!DOCTYPE svg PUBLIC "-//W3C//DTD SVG 1.1//EN" "http://www.w3.org/Graphics/SVG/1.1/DTD/svg11.dtd">
<svg width="100%" height="100%" viewBox="0 0 691 334" version="1.1" xmlns="http://www.w3.org/2000/svg" xmlns:xlink="http://www.w3.org/1999/xlink" xml:space="preserve" xmlns:serif="http://www.serif.com/" style="fill-rule:evenodd;clip-rule:evenodd;stroke-linejoin:round;stroke-miterlimit:2;">
    <g transform="matrix(1,0,0,1,-121.366,-494.515)">
        <g transform="matrix(1,0,0,1,-209.545,-47.9783)">
            <g transform="matrix(392.367,0,0,392.367,313.254,828.921)">
                <path d="M0.401,0.001L0.271,0.109C0.264,0.116 0.254,0.119 0.24,0.119L0.091,0.119C0.06,0.119 0.045,0.104 0.045,0.073L0.045,-0.575C0.045,-0.592 0.05,-0.604 0.059,-0.612L0.188,-0.721C0.195,-0.727 0.206,-0.73 0.22,-0.73L0.381,-0.73C0.394,-0.73 0.404,-0.728 0.413,-0.723C0.421,-0.717 0.429,-0.708 0.436,-0.695L0.504,-0.57L0.513,-0.586C0.518,-0.596 0.524,-0.604 0.531,-0.61L0.66,-0.718C0.665,-0.722 0.671,-0.725 0.677,-0.727C0.682,-0.729 0.689,-0.73 0.697,-0.73L0.859,-0.73C0.89,-0.73 0.905,-0.715 0.905,-0.684L0.905,-0.036C0.905,-0.019 0.9,-0.007 0.891,0.001L0.761,0.109C0.754,0.116 0.744,0.119 0.73,0.119L0.576,0.119C0.559,0.119 0.548,0.115 0.541,0.108C0.534,0.101 0.53,0.089 0.53,0.073L0.53,-0.191L0.471,-0.142C0.46,-0.133 0.445,-0.128 0.428,-0.128L0.415,-0.128L0.415,-0.036C0.415,-0.019 0.41,-0.007 0.401,0.001ZM0.369,-0C0.393,-0 0.405,-0.012 0.405,-0.036L0.405,-0.388L0.464,-0.279C0.475,-0.258 0.493,-0.247 0.517,-0.247L0.557,-0.247C0.581,-0.247 0.599,-0.258 0.61,-0.279L0.669,-0.388L0.669,-0.036C0.669,-0.012 0.681,-0 0.705,-0L0.859,-0C0.883,-0 0.895,-0.012 0.895,-0.036L0.895,-0.684C0.895,-0.708 0.883,-0.72 0.859,-0.72L0.697,-0.72C0.677,-0.72 0.662,-0.71 0.651,-0.69L0.562,-0.527C0.559,-0.521 0.556,-0.517 0.554,-0.514C0.551,-0.511 0.548,-0.51 0.544,-0.51L0.535,-0.51C0.531,-0.51 0.528,-0.511 0.526,-0.514C0.523,-0.517 0.52,-0.521 0.517,-0.527L0.427,-0.69C0.416,-0.71 0.401,-0.72 0.381,-0.72L0.22,-0.72C0.196,-0.72 0.184,-0.708 0.184,-0.684L0.184,-0.036C0.184,-0.012 0.196,-0 0.22,-0L0.369,-0ZM0.536,-0.385C0.548,-0.385 0.557,-0.388 0.562,-0.393C0.567,-0.398 0.576,-0.41 0.587,-0.427L0.709,-0.613C0.713,-0.62 0.717,-0.624 0.723,-0.627C0.728,-0.629 0.733,-0.63 0.738,-0.63L0.755,-0.63C0.773,-0.63 0.782,-0.62 0.782,-0.599L0.782,-0.09L0.772,-0.09L0.772,-0.599C0.772,-0.604 0.771,-0.609 0.769,-0.614C0.767,-0.618 0.762,-0.62 0.755,-0.62L0.74,-0.62C0.735,-0.62 0.731,-0.619 0.728,-0.618C0.725,-0.617 0.721,-0.613 0.717,-0.606L0.595,-0.422C0.583,-0.404 0.574,-0.392 0.568,-0.385C0.561,-0.378 0.551,-0.375 0.536,-0.375C0.521,-0.375 0.511,-0.378 0.505,-0.385C0.498,-0.392 0.489,-0.404 0.477,-0.422L0.355,-0.606C0.351,-0.613 0.347,-0.617 0.344,-0.618C0.34,-0.619 0.336,-0.62 0.331,-0.62L0.316,-0.62C0.309,-0.62 0.305,-0.618 0.303,-0.614C0.301,-0.609 0.3,-0.604 0.3,-0.599L0.3,-0.09L0.29,-0.09L0.29,-0.599C0.29,-0.62 0.299,-0.63 0.316,-0.63L0.333,-0.63C0.338,-0.63 0.344,-0.629 0.349,-0.627C0.354,-0.624 0.359,-0.62 0.363,-0.613L0.485,-0.427C0.496,-0.41 0.505,-0.398 0.51,-0.393C0.515,-0.388 0.524,-0.385 0.536,-0.385Z" style="fill-rule:nonzero;"/>
            </g>
            <g transform="matrix(392.367,0,0,392.367,665.992,828.921)">
                <path d="M0.401,0.001L0.271,0.109C0.264,0.116 0.254,0.119 0.24,0.119L0.091,0.119C0.06,0.119 0.045,0.104 0.045,0.073L0.045,-0.575C0.045,-0.592 0.05,-0.604 0.059,-0.612L0.188,-0.721C0.195,-0.727 0.206,-0.73 0.22,-0.73L0.381,-0.73C0.394,-0.73 0.404,-0.728 0.413,-0.723C0.421,-0.717 0.429,-0.708 0.436,-0.695L0.504,-0.57L0.513,-0.586C0.518,-0.596 0.524,-0.604 0.531,-0.61L0.66,-0.718C0.665,-0.722 0.671,-0.725 0.677,-0.727C0.682,-0.729 0.689,-0.73 0.697,-0.73L0.859,-0.73C0.89,-0.73 0.905,-0.715 0.905,-0.684L0.905,-0.036C0.905,-0.019 0.9,-0.007 0.891,0.001L0.761,0.109C0.754,0.116 0.744,0.119 0.73,0.119L0.576,0.119C0.559,0.119 0.548,0.115 0.541,0.108C0.534,0.101 0.53,0.089 0.53,0.073L0.53,-0.191L0.471,-0.142C0.46,-0.133 0.445,-0.128 0.428,-0.128L0.415,-0.128L0.415,-0.036C0.415,-0.019 0.41,-0.007 0.401,0.001ZM0.369,-0C0.393,-0 0.405,-0.012 0.405,-0.036L0.405,-0.388L0.464,-0.279C0.475,-0.258 0.493,-0.247 0.517,-0.247L0.557,-0.247C0.581,-0.247 0.599,-0.258 0.61,-0.279L0.669,-0.388L0.669,-0.036C0.669,-0.012 0.681,-0 0.705,-0L0.859,-0C0.883,-0 0.895,-0.012 0.895,-0.036L0.895,-0.684C0.895,-0.708 0.883,-0.72 0.859,-0.72L0.697,-0.72C0.677,-0.72 0.662,-0.71 0.651,-0.69L0.562,-0.527C0.559,-0.521 0.556,-0.517 0.554,-0.514C0.551,-0.511 0.548,-0.51 0.544,-0.51L0.535,-0.51C0.531,-0.51 0.528,-0.511 0.526,-0.514C0.523,-0.517 0.52,-0.521 0.517,-0.527L0.427,-0.69C0.416,-0.71 0.401,-0.72 0.381,-0.72L0.22,-0.72C0.196,-0.72 0.184,-0.708 0.184,-0.684L0.184,-0.036C0.184,-0.012 0.196,-0 0.22,-0L0.369,-0ZM0.536,-0.385C0.548,-0.385 0.557,-0.388 0.562,-0.393C0.567,-0.398 0.576,-0.41 0.587,-0.427L0.709,-0.613C0.713,-0.62 0.717,-0.624 0.723,-0.627C0.728,-0.629 0.733,-0.63 0.738,-0.63L0.755,-0.63C0.773,-0.63 0.782,-0.62 0.782,-0.599L0.782,-0.09L0.772,-0.09L0.772,-0.599C0.772,-0.604 0.771,-0.609 0.769,-0.614C0.767,-0.618 0.762,-0.62 0.755,-0.62L0.74,-0.62C0.735,-0.62 0.731,-0.619 0.728,-0.618C0.725,-0.617 0.721,-0.613 0.717,-0.606L0.595,-0.422C0.583,-0.404 0.574,-0.392 0.568,-0.385C0.561,-0.378 0.551,-0.375 0.536,-0.375C0.521,-0.375 0.511,-0.378 0.505,-0.385C0.498,-0.392 0.489,-0.404 0.477,-0.422L0.355,-0.606C0.351,-0.613 0.347,-0.617 0.344,-0.618C0.34,-0.619 0.336,-0.62 0.331,-0.62L0.316,-0.62C0.309,-0.62 0.305,-0.618 0.303,-0.614C0.301,-0.609 0.3,-0.604 0.3,-0.599L0.3,-0.09L0.29,-0.09L0.29,-0.599C0.29,-0.62 0.299,-0.63 0.316,-0.63L0.333,-0.63C0.338,-0.63 0.344,-0.629 0.349,-0.627C0.354,-0.624 0.359,-0.62 0.363,-0.613L0.485,-0.427C0.496,-0.41 0.505,-0.398 0.51,-0.393C0.515,-0.388 0.524,-0.385 0.536,-0.385Z" style="fill-rule:nonzero;"/>
            </g>
        </g>
    </g>
</svg>
